<?xml version="1.0" encoding="utf-8"?>
<!-- Generator: Adobe Illustrator 21.1.0, SVG Export Plug-In . SVG Version: 6.00 Build 0)  -->
<svg version="1.1" id="Layer_1" xmlns="http://www.w3.org/2000/svg" xmlns:xlink="http://www.w3.org/1999/xlink" x="0px" y="0px"
	 viewBox="0 0 1920 1080" style="enable-background:new 0 0 1920 1080;" xml:space="preserve">
<style type="text/css">
	.st0{fill:#382B73;}
	.st1{fill:#473080;}
	.st2{fill:#EF5A9D;}
	.st3{fill:#E43D91;}
	.st4{fill:#1CAEE4;}
	.st5{fill:#009ADD;}
	.st6{fill:#136DA0;}
	.st7{fill:#D1D3D4;}
	.st8{fill:#FFFFFF;}
	.st9{fill:#BCBEC0;}
	.st10{font-family:'Futura-Medium';}
	.st11{font-size:350px;}
</style>
<circle class="st0" cx="271" cy="520" r="240"/>
<circle class="st1" cx="271" cy="520" r="205"/>
<path class="st0" d="M315.5,509.4h-12.3c6.6-4.5,12.3-10.4,16.5-17.3c10-16.6,10.7-37.7,1.8-54.9c-4.6-8.8-11.6-16.3-20-21.6
	c-9.1,16.1-17.1,21.3-19.6,22.8c-0.6,0.3-2.4,0.8-2.7,1.4c7.5-11.8,8.9-27.2,3-40c-5.4-11.6-16.2-19.6-27.4-25.3
	c-6.3-3.2-13-5.8-19.6-8.3c6.8,9.1,10.7,21.5,9.6,32.9c-0.7,6.8-3.2,13.3-7.3,18.8c-3.3,4.4-7.7,7.8-10.9,12.2
	c-16.1,22.1-13.4,53.2,5.8,72.6c2.5,2.5,5.2,4.7,8.1,6.7h-14c-3.6,0-6.3,3.2-5.7,6.7l6.4,41.4c0.3,1.9,1.5,3.4,3.1,4.3
	c1.1,6.3,6.6,11.1,13.3,11.1h13.6v118c0,7.7,6.2,13.9,13.9,13.9c7.7,0,13.9-6.2,13.9-13.9V573h13.6c6.6,0,12.2-4.8,13.3-11.1
	c1.6-0.8,2.8-2.4,3.1-4.3l6.4-41.4C321.8,512.6,319.1,509.4,315.5,509.4L315.5,509.4z"/>
<path class="st2" d="M289.4,419.3c0.2-0.1,0.3-0.3,0.5-0.4C289.7,419,289.6,419.1,289.4,419.3z"/>
<path class="st2" d="M277.3,504.8c17.5-1.7,33.4-11.7,42.5-26.7c10-16.6,10.7-37.7,1.8-54.9c-4.6-8.8-11.6-16.3-20-21.6
	c-9.1,16.1-17.1,21.3-19.6,22.8c-0.6,0.3-2.4,0.8-2.7,1.4c7.5-11.8,8.9-27.2,3-40c-5.4-11.6-16.2-19.6-27.4-25.3
	c-6.3-3.2-13-5.8-19.6-8.3c6.8,9.1,10.7,21.5,9.6,32.9c-0.7,6.8-3.2,13.3-7.3,18.8c-3.3,4.4-7.7,7.8-10.9,12.2
	c-16.1,22.1-13.4,53.2,5.8,72.6C244,500.5,260.9,506.4,277.3,504.8L277.3,504.8z"/>
<path class="st3" d="M277.3,504.8c17.5-1.7,33.4-11.7,42.5-26.7c2-3.3,3.7-6.9,4.9-10.5c-0.5,0.8-1.1,1.8-2,3.3
	c-0.1,0.3-0.3,0.5-0.5,0.8c-7.7,13.2-24.6,17.7-37.8,10c-5.6-3.2-9.6-8.1-11.8-13.6c-2.2,11.3,2.7,23.2,13.2,29.3
	c0.7,0.4,1.4,0.8,2.2,1.1c-20.8,1-38.9-14.4-40.9-35.4c-0.4-4.2-0.1-8.5,0.9-12.7c1-4.3,3.2-7.9,4.8-11.9c-0.4,0-0.8,0.2-1.2,0.4
	c-14.2,7.2-22.8,22.9-21.3,38.7c0.4,4.4,1.5,8,3,12C245,500.8,261.3,506.4,277.3,504.8L277.3,504.8z"/>
<path class="st3" d="M282,424.4c-0.5,0.3-2,0.7-2.5,1.2c0,0.1-0.1,0.1-0.1,0.2c0,0-13,23-13,23c-0.2,0.4,3.2-0.2,3.6-0.3
	c2.3-0.7,4.5-2,6.6-3.2c12.3-6.9,23-18.5,25-32.9c0.4-3,0.5-5.9,0.3-8.9c0-0.4-0.1-1-0.1-1.8C292.5,417.7,284.5,422.9,282,424.4
	L282,424.4z"/>
<path class="st3" d="M226.6,416.2c-7,9.6-10.4,20.9-10.5,32.1c0.1-0.2,0.2-0.3,0.3-0.5c0.3-0.5,0.5-0.9,0.8-1.4
	c1.5-2.5,3.4-5,4.6-6.6c14.9-19.7,27-17.3,33.4-42.5c0.1-0.6,0.3-1.1,0.4-1.7c0,0,0,0,0-0.1c0-0.2,0.1-0.4,0.1-0.6
	c6.1-27.3-19.7-42.3-20.4-42.6c0,0,0,0,0,0c0,0,0.1,0.1,0.1,0.1h0c6.7,9.1,10.6,21.5,9.6,32.8c-0.7,6.8-3.2,13.3-7.3,18.8
	C234.3,408.4,229.9,411.7,226.6,416.2L226.6,416.2z"/>
<path class="st4" d="M271,690.9c-7.7,0-13.9-6.2-13.9-13.9V559h27.9v118C284.9,684.7,278.7,690.9,271,690.9z"/>
<path class="st5" d="M271,677V559h-13.9v118c0,7.7,6.2,13.9,13.9,13.9c2.5,0,4.9-0.7,7-1.9C273.8,686.6,271,682.1,271,677L271,677z"
	/>
<path class="st4" d="M298.6,532h-55.2c-7.5,0-13.5,6-13.5,13.5c0,7.5,6,13.5,13.5,13.5h55.2c7.5,0,13.5-6,13.5-13.5
	C312.1,538,306,532,298.6,532z"/>
<path class="st6" d="M257.1,559h27.9v18.9h-27.9V559z"/>
<path class="st7" d="M226.5,495.4h89.1c3.6,0,6.3,3.2,5.7,6.7l-6.4,41.4c-0.4,2.8-2.9,4.9-5.7,4.9h-76.4c-2.9,0-5.3-2.1-5.7-4.9
	l-6.4-41.4C220.2,498.6,222.9,495.4,226.5,495.4L226.5,495.4z"/>
<path class="st8" d="M234.4,495.4h73.1c2.7,0,4.8,3.2,4.4,6.7l-4.9,41.4c-0.3,2.8-2.2,4.9-4.4,4.9h-63.4c-2.2,0-4.1-2.1-4.4-4.9
	l-4.9-41.4C229.6,498.6,231.7,495.4,234.4,495.4L234.4,495.4z"/>
<path class="st3" d="M320.2,508.9h-98.5l4.3,28.2h89.9L320.2,508.9z"/>
<path class="st2" d="M311.1,508.9h-80.2l3.3,28.2h73.6L311.1,508.9z"/>
<g>
	<path class="st3" d="M301.1,537.1l10-28.2h-20L301.1,537.1z"/>
	<path class="st3" d="M281,537.1l10-28.2h-20L281,537.1z"/>
	<path class="st3" d="M261,537.1l10-28.2h-20L261,537.1z"/>
	<path class="st3" d="M240.9,537.1l10-28.2h-20L240.9,537.1z"/>
</g>
<path class="st9" d="M221.2,505.1c0.9-2,2.9-3.4,5.3-3.4h89.1c2.4,0,4.4,1.4,5.3,3.4l0.5-3c0.5-3.5-2.2-6.7-5.7-6.7h-89.1
	c-3.6,0-6.3,3.2-5.7,6.7L221.2,505.1z"/>
<path class="st7" d="M307.6,495.4h-73.1c-2.6,0-4.6,2.9-4.4,6.2h82C312.2,498.4,310.2,495.4,307.6,495.4z"/>
<text transform="matrix(1 0 0 1 531.5244 641.6724)" class="st0 st10 st11">EventLite</text>
</svg>
